<?xml version="1.0" standalone="no"?>
<!DOCTYPE svg PUBLIC "-//W3C//DTD SVG 20010904//EN"
 "http://www.w3.org/TR/2001/REC-SVG-20010904/DTD/svg10.dtd">
<svg version="1.0" xmlns="http://www.w3.org/2000/svg"
 width="1000.000000pt" height="1000.000000pt" viewBox="0 0 1000.000000 1000.000000"
 preserveAspectRatio="xMidYMid meet">
<metadata>
Created by potrace 1.14, written by Peter Selinger 2001-2017
</metadata>
<g transform="translate(0.000000,1000.000000) scale(0.100000,-0.100000)"
fill="#000000" stroke="none">
<path d="M4300 7850 l0 -50 50 0 50 0 0 -50 0 -50 -50 0 -50 0 0 -50 0 -50 50
0 50 0 0 -100 0 -100 100 0 100 0 0 -100 0 -100 50 0 50 0 0 -50 0 -50 -50 0
-50 0 0 -50 0 -50 50 0 50 0 0 50 0 50 50 0 50 0 0 -100 0 -100 -250 0 -250 0
0 -50 0 -50 -100 0 -100 0 0 -50 0 -50 -100 0 -100 0 0 -150 0 -150 50 0 50 0
0 -100 0 -100 -50 0 -50 0 0 -200 0 -200 -50 0 -50 0 0 -150 0 -150 -50 0 -50
0 0 -100 0 -100 -50 0 -50 0 0 -400 0 -400 50 0 50 0 0 -100 0 -100 50 0 50 0
0 -100 0 -100 50 0 50 0 0 -100 0 -100 100 0 100 0 0 -150 0 -150 -50 0 -50 0
0 -200 0 -200 50 0 50 0 0 -50 0 -50 50 0 50 0 0 -150 0 -150 -50 0 -50 0 0
-50 0 -50 -50 0 -50 0 0 -150 0 -150 -50 0 -50 0 0 -250 0 -250 50 0 50 0 0
-350 0 -350 -50 0 -50 0 0 -50 0 -50 -750 0 -750 0 0 -50 0 -50 2500 0 2500 0
0 50 0 50 -700 0 -700 0 0 50 0 50 -50 0 -50 0 0 50 0 50 -100 0 -100 0 0 50
0 50 -50 0 -50 0 0 150 0 150 -50 0 -50 0 0 350 0 350 50 0 50 0 0 100 0 100
50 0 50 0 0 150 0 150 50 0 50 0 0 500 0 500 50 0 50 0 0 50 0 50 50 0 50 0 0
150 0 150 -50 0 -50 0 0 50 0 50 50 0 50 0 0 150 0 150 -50 0 -50 0 0 200 0
200 -50 0 -50 0 0 100 0 100 -50 0 -50 0 0 250 0 250 50 0 50 0 0 200 0 200
-50 0 -50 0 0 150 0 150 -50 0 -50 0 0 50 0 50 -50 0 -50 0 0 50 0 50 -50 0
-50 0 0 50 0 50 -50 0 -50 0 0 50 0 50 -150 0 -150 0 0 50 0 50 -50 0 -50 0 0
50 0 50 -50 0 -50 0 0 100 0 100 50 0 50 0 0 100 0 100 50 0 50 0 0 -100 0
-100 50 0 50 0 0 100 0 100 50 0 50 0 0 -50 0 -50 50 0 50 0 0 -100 0 -100 50
0 50 0 0 100 0 100 50 0 50 0 0 -50 0 -50 50 0 50 0 0 50 0 50 -50 0 -50 0 0
150 0 150 -50 0 -50 0 0 50 0 50 -50 0 -50 0 0 50 0 50 -200 0 -200 0 0 -50 0
-50 -50 0 -50 0 0 50 0 50 -100 0 -100 0 0 -50 0 -50 -100 0 -100 0 0 50 0 50
-50 0 -50 0 0 -50z m500 -1100 l0 -50 49 0 50 0 3 -47 3 -48 45 0 45 0 5 -50
5 -50 98 -3 97 -3 0 -49 0 -50 50 0 50 0 0 -49 0 -50 48 -3 47 -3 3 -847 2
-848 -200 0 -200 0 0 50 0 50 -50 0 -50 0 2 797 c3 770 4 798 22 801 13 3 16
0 11 -10 -6 -10 -5 -11 6 0 7 6 23 12 36 12 21 0 23 4 23 50 l0 50 -50 0 -50
0 0 50 0 50 -100 0 -100 0 0 50 0 50 -50 0 -50 0 0 51 0 51 50 -4 50 -3 0 53
0 52 50 0 50 0 0 -50z m-500 -1500 l0 -50 50 0 50 0 0 -250 0 -250 -50 0 -50
0 0 -150 0 -150 -50 0 -50 0 0 -50 0 -50 50 0 50 0 0 -50 0 -50 -50 0 -50 0 0
-150 0 -150 -50 0 -50 0 0 50 0 50 -50 0 -50 0 0 100 0 100 -50 0 -50 0 0 50
0 50 50 0 50 0 0 50 0 50 100 0 100 0 0 50 0 50 -50 0 -50 0 0 250 0 250 50 0
50 0 0 150 0 150 50 0 50 0 0 -50z m1600 -1100 l0 -150 -50 0 -50 0 0 150 0
150 50 0 50 0 0 -150z m-800 -1200 l0 -50 50 0 50 0 0 -50 0 -50 -50 0 -50 0
0 -100 0 -100 -50 0 -50 0 0 -300 0 -300 50 0 50 0 0 -150 0 -150 50 0 50 0 0
-200 0 -200 -50 0 -50 0 0 -100 0 -100 -300 0 -300 0 0 100 0 100 -50 0 -50 0
0 50 0 50 -50 0 -50 0 0 200 0 200 50 0 50 0 0 200 0 200 50 0 50 0 0 150 0
150 50 0 50 0 0 150 0 150 50 0 50 0 0 50 0 50 50 0 50 0 0 50 0 50 150 0 150
0 0 -50z"/>
<path d="M4998 6273 c-2 -16 -2 -83 0 -150 l3 -123 100 0 99 0 0 50 0 50 50 0
50 0 0 100 0 100 -50 0 -50 0 0 -100 0 -100 -50 0 -50 0 0 100 0 100 -49 0
c-47 0 -50 -2 -53 -27z"/>
<path d="M2200 1050 l0 -50 50 0 50 0 0 50 0 50 -50 0 -50 0 0 -50z"/>
<path d="M7500 1050 l0 -50 50 0 50 0 0 50 0 50 -50 0 -50 0 0 -50z"/>
<path d="M7700 1050 l0 -50 50 0 50 0 0 50 0 50 -50 0 -50 0 0 -50z"/>
<path d="M7900 1050 l0 -50 50 0 50 0 0 50 0 50 -50 0 -50 0 0 -50z"/>
</g>
</svg>
